<svg width="46" height="18" viewBox="0 0 46 18" fill="none" xmlns="http://www.w3.org/2000/svg">
<path d="M1.82 8.974C1.61 8.484 1.4 7.98 1.4 7.322C1.4 5.824 2.618 4.718 4.172 4.718C6.342 4.718 6.986 6.09 7.056 7.21L5.684 7.448C5.67 6.398 5.054 5.922 4.2 5.922C3.458 5.922 2.772 6.412 2.772 7.322C2.772 7.924 2.996 8.428 3.234 8.974H5.95V10.178H3.598C3.612 10.304 3.626 10.43 3.626 10.556C3.626 11.55 3.136 12.348 2.296 12.782H5.138C6.09 12.782 6.482 12.068 6.482 11.298L7.798 11.494C7.798 12.95 6.93 14 5.474 14H0.756V12.67C1.708 12.278 2.296 11.494 2.296 10.71C2.296 10.5 2.282 10.332 2.24 10.178H0.84V8.974H1.82Z" fill="#222222"/>
<path d="M25.68 14L25.554 12.74C25.12 13.468 24.098 14.21 22.516 14.21C19.926 14.21 17.63 12.306 17.63 9.03C17.63 5.768 20.052 3.864 22.628 3.864C25.022 3.864 26.59 5.264 27.108 6.888L25.526 7.49C25.19 6.37 24.21 5.418 22.628 5.418C21.018 5.418 19.338 6.566 19.338 9.03C19.338 11.438 20.906 12.67 22.614 12.67C24.616 12.67 25.386 11.284 25.456 10.444H22.18V8.974H27.038V14H25.68ZM32.5448 4.074C34.4488 4.074 35.5688 5.18 35.5688 6.748C35.5688 7.812 34.9528 8.568 34.0988 8.89C35.1628 9.17 35.8768 10.08 35.8768 11.256C35.8768 12.866 34.6448 14 32.7968 14H29.1288V4.074H32.5448ZM32.3208 8.274C33.3148 8.274 33.8888 7.728 33.8888 6.888C33.8888 6.048 33.3008 5.502 32.2788 5.502H30.7948V8.274H32.3208ZM32.5028 12.572C33.5108 12.572 34.1688 12.04 34.1688 11.144C34.1688 10.29 33.6088 9.688 32.5588 9.688H30.7948V12.572H32.5028ZM41.2268 8.638C42.2908 8.638 42.9348 8.064 42.9348 7.112C42.9348 6.16 42.2908 5.558 41.2268 5.558H39.4768V8.638H41.2268ZM39.4768 10.122V14H37.7968V4.074H41.4788C43.3828 4.074 44.6428 5.362 44.6428 7.098C44.6428 8.848 43.3828 10.122 41.4788 10.122H39.4768Z" fill="#222222"/>
</svg>
